<svg xmlns="http://www.w3.org/2000/svg" x="0px" y="0px" width="141.511px" height="84.591px" viewBox="0 0 141.511 84.591">
    <g fill="#ffffff">
        <g>
            <path d="M18.96,16.176c-0.176,0.224-0.348,0.4-0.516,0.528c-0.168,0.128-0.412,0.192-0.732,0.192c-0.304,0-0.6-0.092-0.888-0.276
                c-0.288-0.184-0.632-0.392-1.032-0.624c-0.399-0.231-0.876-0.439-1.428-0.624c-0.552-0.184-1.236-0.276-2.052-0.276
                c-1.04,0-1.952,0.188-2.736,0.564c-0.784,0.376-1.437,0.916-1.956,1.62s-0.908,1.556-1.164,2.556s-0.384,2.132-0.384,3.396
                c0,1.312,0.14,2.48,0.42,3.504s0.685,1.884,1.212,2.58c0.528,0.696,1.168,1.224,1.92,1.584s1.6,0.54,2.544,0.54
                s1.708-0.116,2.292-0.348s1.076-0.488,1.477-0.768c0.399-0.28,0.747-0.536,1.044-0.768c0.296-0.231,0.628-0.348,0.996-0.348
                c0.479,0,0.84,0.184,1.08,0.552l1.704,2.16c-0.656,0.768-1.368,1.412-2.137,1.932c-0.768,0.521-1.563,0.936-2.388,1.248
                s-1.677,0.532-2.556,0.66c-0.881,0.128-1.752,0.192-2.616,0.192c-1.521,0-2.952-0.284-4.296-0.852
                c-1.345-0.567-2.517-1.396-3.517-2.484c-1-1.088-1.792-2.42-2.376-3.996C0.292,27.044,0,25.248,0,23.232
                c0-1.808,0.26-3.484,0.78-5.028c0.52-1.543,1.284-2.88,2.292-4.008s2.256-2.012,3.744-2.652s3.2-0.96,5.136-0.96
                c1.84,0,3.452,0.296,4.836,0.888c1.384,0.592,2.628,1.44,3.732,2.544L18.96,16.176z"/>
            <path d="M18.96,16.176c-0.176,0.224-0.348,0.4-0.516,0.528c-0.168,0.128-0.412,0.192-0.732,0.192c-0.304,0-0.6-0.092-0.888-0.276
                c-0.288-0.184-0.632-0.392-1.032-0.624c-0.399-0.231-0.876-0.439-1.428-0.624c-0.552-0.184-1.236-0.276-2.052-0.276
                c-1.04,0-1.952,0.188-2.736,0.564c-0.784,0.376-1.437,0.916-1.956,1.62s-0.908,1.556-1.164,2.556s-0.384,2.132-0.384,3.396
                c0,1.312,0.14,2.48,0.42,3.504s0.685,1.884,1.212,2.58c0.528,0.696,1.168,1.224,1.92,1.584s1.6,0.54,2.544,0.54
                s1.708-0.116,2.292-0.348s1.076-0.488,1.477-0.768c0.399-0.28,0.747-0.536,1.044-0.768c0.296-0.231,0.628-0.348,0.996-0.348
                c0.479,0,0.84,0.184,1.08,0.552l1.704,2.16c-0.656,0.768-1.368,1.412-2.137,1.932c-0.768,0.521-1.563,0.936-2.388,1.248
                s-1.677,0.532-2.556,0.66c-0.881,0.128-1.752,0.192-2.616,0.192c-1.521,0-2.952-0.284-4.296-0.852
                c-1.345-0.567-2.517-1.396-3.517-2.484c-1-1.088-1.792-2.42-2.376-3.996C0.292,27.044,0,25.248,0,23.232
                c0-1.808,0.26-3.484,0.78-5.028c0.52-1.543,1.284-2.88,2.292-4.008s2.256-2.012,3.744-2.652s3.2-0.96,5.136-0.96
                c1.84,0,3.452,0.296,4.836,0.888c1.384,0.592,2.628,1.44,3.732,2.544L18.96,16.176z"/>
            <path d="M24.552,35.592V10.968h3.48c0.607,0,1.031,0.112,1.271,0.336c0.24,0.224,0.399,0.608,0.48,1.152l0.359,2.976
                c0.88-1.52,1.912-2.72,3.097-3.6c1.184-0.88,2.512-1.32,3.983-1.32c1.216,0,2.224,0.28,3.024,0.84l-0.769,4.44
                c-0.048,0.288-0.152,0.492-0.312,0.612c-0.16,0.12-0.376,0.18-0.648,0.18c-0.239,0-0.567-0.056-0.983-0.168
                c-0.417-0.112-0.969-0.168-1.656-0.168c-1.232,0-2.288,0.34-3.168,1.02c-0.88,0.681-1.624,1.676-2.232,2.988v15.336H24.552z"/>
            <path d="M62.759,35.592h-2.664c-0.56,0-1-0.084-1.319-0.252c-0.32-0.168-0.561-0.508-0.721-1.02l-0.527-1.752
                c-0.624,0.56-1.236,1.052-1.836,1.476c-0.601,0.424-1.221,0.78-1.86,1.068c-0.641,0.288-1.32,0.504-2.04,0.648
                s-1.521,0.216-2.4,0.216c-1.04,0-2-0.141-2.88-0.421c-0.88-0.281-1.636-0.702-2.268-1.264c-0.633-0.562-1.124-1.26-1.477-2.095
                c-0.352-0.834-0.527-1.806-0.527-2.914c0-0.931,0.243-1.85,0.731-2.757c0.488-0.907,1.3-1.726,2.437-2.456
                c1.136-0.73,2.647-1.336,4.536-1.818c1.888-0.481,4.231-0.723,7.031-0.723v-1.451c0-1.661-0.348-2.89-1.044-3.688
                c-0.695-0.798-1.708-1.197-3.036-1.197c-0.96,0-1.76,0.112-2.399,0.336c-0.641,0.224-1.196,0.476-1.668,0.756
                c-0.473,0.28-0.908,0.532-1.309,0.756c-0.399,0.224-0.84,0.336-1.319,0.336c-0.4,0-0.744-0.104-1.032-0.312
                s-0.521-0.464-0.696-0.768l-1.08-1.896c2.832-2.592,6.248-3.888,10.248-3.888c1.44,0,2.725,0.236,3.853,0.708
                c1.128,0.472,2.084,1.128,2.868,1.968c0.783,0.84,1.38,1.844,1.787,3.012c0.408,1.168,0.612,2.448,0.612,3.84V35.592z
                 M51.239,31.896c0.607,0,1.167-0.055,1.68-0.166c0.512-0.11,0.996-0.276,1.452-0.496c0.456-0.221,0.896-0.492,1.32-0.815
                c0.423-0.323,0.852-0.705,1.283-1.146v-4.122c-1.728,0-3.172,0.109-4.332,0.326s-2.092,0.496-2.796,0.834
                c-0.704,0.339-1.204,0.733-1.5,1.185s-0.443,0.942-0.443,1.474c0,1.048,0.308,1.797,0.924,2.248
                C49.442,31.67,50.247,31.896,51.239,31.896z"/>
            <path d="M75.792,3.792c0,0.512-0.104,0.992-0.312,1.44s-0.483,0.84-0.828,1.176c-0.344,0.336-0.748,0.604-1.212,0.804
                s-0.96,0.3-1.487,0.3c-0.513,0-0.996-0.1-1.452-0.3s-0.853-0.468-1.188-0.804s-0.604-0.728-0.804-1.176s-0.3-0.928-0.3-1.44
                c0-0.528,0.1-1.024,0.3-1.488c0.2-0.464,0.468-0.864,0.804-1.2C69.647,0.768,70.044,0.5,70.5,0.3C70.956,0.1,71.439,0,71.952,0
                c0.527,0,1.023,0.1,1.487,0.3c0.464,0.2,0.868,0.468,1.212,0.804c0.345,0.336,0.62,0.736,0.828,1.2
                C75.688,2.768,75.792,3.264,75.792,3.792z M74.904,10.968v24.624h-5.929V10.968H74.904z"/>
            <path d="M90.12,10.536c1.056,0,2.048,0.108,2.976,0.324c0.928,0.216,1.776,0.532,2.544,0.948h7.08v2.208
                c0,0.369-0.096,0.656-0.288,0.864s-0.521,0.352-0.984,0.432l-2.208,0.408c0.16,0.417,0.284,0.856,0.372,1.32
                c0.088,0.464,0.132,0.952,0.132,1.464c0,1.216-0.243,2.316-0.731,3.3s-1.16,1.82-2.016,2.508c-0.856,0.688-1.872,1.22-3.049,1.596
                c-1.176,0.376-2.452,0.564-3.827,0.564c-0.929,0-1.833-0.087-2.713-0.264c-0.768,0.467-1.151,0.991-1.151,1.571
                c0,0.5,0.228,0.867,0.684,1.101c0.456,0.233,1.057,0.398,1.8,0.495c0.744,0.097,1.588,0.146,2.532,0.146s1.912,0.04,2.904,0.12
                s1.96,0.221,2.904,0.421c0.943,0.201,1.787,0.518,2.531,0.951s1.345,1.024,1.801,1.77c0.455,0.746,0.684,1.706,0.684,2.877
                c0,1.092-0.269,2.151-0.804,3.179c-0.536,1.027-1.312,1.942-2.328,2.745c-1.017,0.802-2.261,1.448-3.732,1.938
                c-1.472,0.49-3.152,0.734-5.04,0.734c-1.872,0-3.496-0.18-4.872-0.539c-1.376-0.36-2.516-0.84-3.42-1.44s-1.58-1.292-2.027-2.076
                c-0.448-0.784-0.673-1.6-0.673-2.448c0-1.152,0.353-2.121,1.057-2.904s1.68-1.408,2.928-1.872
                c-0.608-0.336-1.096-0.784-1.464-1.344s-0.552-1.288-0.552-2.184c0-0.368,0.063-0.748,0.191-1.14
                c0.128-0.392,0.324-0.78,0.588-1.164c0.265-0.384,0.597-0.748,0.996-1.092c0.4-0.344,0.872-0.652,1.416-0.924
                c-1.248-0.672-2.228-1.568-2.939-2.688c-0.713-1.12-1.068-2.432-1.068-3.936c0-1.216,0.244-2.316,0.732-3.3
                c0.487-0.984,1.167-1.824,2.04-2.52c0.871-0.696,1.903-1.228,3.096-1.596C87.411,10.72,88.712,10.536,90.12,10.536z
                 M96.624,36.625c0-0.49-0.145-0.89-0.433-1.2c-0.288-0.311-0.68-0.551-1.176-0.723c-0.496-0.171-1.076-0.298-1.74-0.38
                c-0.664-0.082-1.368-0.123-2.111-0.123c-0.744,0-1.513,0-2.305,0s-1.556-0.088-2.292-0.264c-0.672,0.368-1.212,0.804-1.62,1.308
                c-0.407,0.504-0.611,1.084-0.611,1.74c0,0.432,0.107,0.836,0.323,1.212c0.217,0.376,0.561,0.7,1.032,0.972
                c0.472,0.271,1.084,0.483,1.836,0.636c0.752,0.152,1.672,0.228,2.761,0.228c1.104,0,2.056-0.086,2.855-0.257s1.46-0.408,1.98-0.71
                c0.52-0.302,0.899-0.662,1.14-1.078C96.504,37.569,96.624,37.115,96.624,36.625z M90.12,22.68c0.735,0,1.375-0.1,1.92-0.3
                c0.543-0.2,0.995-0.476,1.355-0.828c0.36-0.352,0.632-0.776,0.816-1.272c0.184-0.496,0.275-1.04,0.275-1.632
                c0-1.216-0.364-2.18-1.092-2.892c-0.729-0.712-1.82-1.068-3.275-1.068c-1.457,0-2.549,0.356-3.276,1.068
                c-0.729,0.712-1.092,1.676-1.092,2.892c0,0.576,0.092,1.112,0.275,1.608c0.184,0.496,0.456,0.924,0.816,1.284
                c0.36,0.36,0.815,0.64,1.368,0.84C88.764,22.58,89.399,22.68,90.12,22.68z"/>
            <path opacity="0.5" d="M113.64,3.792c0,0.512-0.104,0.992-0.312,1.44s-0.483,0.84-0.828,1.176
                c-0.344,0.336-0.748,0.604-1.212,0.804s-0.96,0.3-1.487,0.3c-0.513,0-0.996-0.1-1.452-0.3s-0.853-0.468-1.188-0.804
                s-0.604-0.728-0.804-1.176s-0.3-0.928-0.3-1.44c0-0.528,0.1-1.024,0.3-1.488c0.2-0.464,0.468-0.864,0.804-1.2
                c0.336-0.336,0.732-0.604,1.188-0.804c0.456-0.2,0.939-0.3,1.452-0.3c0.527,0,1.023,0.1,1.487,0.3
                c0.464,0.2,0.868,0.468,1.212,0.804c0.345,0.336,0.62,0.736,0.828,1.2C113.535,2.768,113.64,3.264,113.64,3.792z M112.752,10.968
                v24.624h-5.929V10.968H112.752z"/>
            <path opacity="0.5" d="M119.447,35.592V10.968h3.624c0.768,0,1.272,0.36,1.512,1.08l0.408,1.944
                c0.496-0.512,1.021-0.976,1.572-1.392c0.552-0.416,1.136-0.776,1.752-1.08c0.615-0.304,1.275-0.536,1.979-0.696
                c0.704-0.16,1.473-0.24,2.305-0.24c1.344,0,2.535,0.228,3.576,0.684c1.039,0.456,1.907,1.096,2.604,1.92s1.224,1.808,1.584,2.952
                c0.36,1.144,0.54,2.404,0.54,3.78v15.672h-5.928V19.92c0-1.504-0.349-2.668-1.044-3.492c-0.696-0.824-1.74-1.236-3.133-1.236
                c-1.023,0-1.983,0.232-2.88,0.696c-0.896,0.464-1.744,1.096-2.544,1.896v17.808H119.447z"/>
            <path d="M35.079,48.642c2.645,0,5.042,0.427,7.193,1.277c2.15,0.852,3.984,2.059,5.503,3.623c1.518,1.563,2.69,3.473,3.519,5.727
                s1.242,4.772,1.242,7.555c0,2.807-0.414,5.337-1.242,7.59c-0.828,2.255-2.001,4.176-3.519,5.762
                c-1.519,1.588-3.353,2.807-5.503,3.658c-2.151,0.85-4.549,1.275-7.193,1.275c-2.646,0-5.049-0.426-7.211-1.275
                c-2.162-0.852-4.008-2.07-5.537-3.658c-1.529-1.586-2.714-3.507-3.554-5.762c-0.84-2.253-1.259-4.783-1.259-7.59
                c0-2.782,0.419-5.301,1.259-7.555s2.024-4.163,3.554-5.727c1.529-1.564,3.375-2.771,5.537-3.623
                C30.03,49.069,32.434,48.642,35.079,48.642z M35.079,78.554c2.943,0,5.123-0.988,6.538-2.967c1.414-1.979,2.121-4.876,2.121-8.694
                c0-3.817-0.707-6.728-2.121-8.728c-1.415-2.002-3.595-3.002-6.538-3.002c-2.99,0-5.198,1.006-6.624,3.019
                c-1.427,2.013-2.139,4.916-2.139,8.711c0,3.796,0.712,6.688,2.139,8.677C29.881,77.56,32.089,78.554,35.079,78.554z"/>
            <path d="M54.882,49.195h6.763c0.644,0,1.184,0.15,1.621,0.448c0.437,0.3,0.713,0.679,0.828,1.139l5.071,18.906
                c0.276,1.034,0.5,2.048,0.673,3.036s0.339,1.979,0.5,2.967c0.253-0.988,0.523-1.979,0.811-2.967
                c0.288-0.988,0.593-2.002,0.915-3.036l5.864-18.976c0.139-0.459,0.414-0.839,0.828-1.139c0.414-0.298,0.897-0.447,1.449-0.447
                h3.761c0.621,0,1.139,0.149,1.553,0.447c0.413,0.3,0.689,0.68,0.827,1.139l5.797,19.32c0.298,0.989,0.568,1.949,0.811,2.881
                c0.241,0.932,0.477,1.869,0.707,2.812c0.16-0.988,0.339-1.978,0.535-2.967c0.194-0.989,0.442-2.013,0.741-3.07l5.244-18.906
                c0.115-0.46,0.391-0.839,0.828-1.139c0.437-0.298,0.942-0.448,1.518-0.448h6.452L97.766,84.591H90.9
                c-0.736,0-1.266-0.506-1.587-1.518l-6.383-20.459c-0.207-0.666-0.396-1.339-0.569-2.018c-0.173-0.678-0.316-1.352-0.432-2.019
                c-0.138,0.69-0.287,1.375-0.448,2.053c-0.161,0.679-0.345,1.362-0.552,2.053l-6.451,20.39c-0.322,1.012-0.943,1.518-1.863,1.518
                h-6.521L54.882,49.195z"/>
            <path d="M141.511,84.591h-3.829c-0.806,0-1.438-0.12-1.897-0.361c-0.461-0.242-0.806-0.73-1.035-1.467l-0.759-2.519
                c-0.897,0.806-1.777,1.513-2.64,2.122s-1.754,1.121-2.674,1.535s-1.897,0.725-2.933,0.932s-2.186,0.311-3.45,0.311
                c-1.495,0-2.875-0.203-4.14-0.605c-1.266-0.404-2.352-1.01-3.261-1.817c-0.908-0.808-1.615-1.812-2.121-3.012
                c-0.507-1.2-0.759-2.597-0.759-4.188c0-1.338,0.35-2.66,1.052-3.964c0.701-1.304,1.868-2.479,3.502-3.53
                c1.633-1.05,3.807-1.921,6.521-2.613s6.083-1.039,10.108-1.039v-2.086c0-2.387-0.5-4.154-1.501-5.301
                c-1-1.147-2.455-1.721-4.364-1.721c-1.38,0-2.53,0.16-3.45,0.482s-1.719,0.686-2.397,1.087c-0.679,0.403-1.306,0.765-1.88,1.087
                c-0.575,0.322-1.208,0.482-1.897,0.482c-0.575,0-1.069-0.148-1.483-0.447s-0.748-0.668-1.001-1.104l-1.553-2.726
                c4.071-3.727,8.981-5.59,14.731-5.59c2.07,0,3.916,0.34,5.538,1.019c1.621,0.679,2.995,1.622,4.122,2.829s1.984,2.65,2.57,4.33
                c0.587,1.679,0.88,3.519,0.88,5.52V84.591z M124.951,79.279c0.873,0,1.678-0.079,2.415-0.238c0.735-0.158,1.432-0.396,2.087-0.713
                c0.655-0.316,1.288-0.707,1.897-1.171s1.225-1.014,1.846-1.647v-5.925c-2.484,0-4.56,0.156-6.228,0.469s-3.007,0.713-4.019,1.198
                c-1.013,0.487-1.731,1.055-2.156,1.703c-0.427,0.648-0.639,1.355-0.639,2.119c0,1.506,0.442,2.584,1.328,3.232
                C122.368,78.955,123.524,79.279,124.951,79.279z"/>
            <g>
                <rect x="1.821" y="49.195" width="8.521" height="35.396"/>
                <path d="M11.064,39.952c-2.051,0-4.02-0.393-5.853-1.167c-1.417-0.598-2.707-1.415-3.854-2.432
                    c-0.068,0.131-0.15,0.249-0.21,0.388c-0.288,0.667-0.432,1.38-0.432,2.139c0,0.736,0.144,1.426,0.432,2.07
                    c0.287,0.644,0.673,1.208,1.155,1.69c0.483,0.483,1.053,0.869,1.708,1.156c0.655,0.288,1.351,0.431,2.087,0.431
                    c0.759,0,1.472-0.143,2.14-0.431c0.666-0.287,1.247-0.673,1.742-1.156c0.494-0.483,0.891-1.046,1.189-1.69
                    c0.151-0.326,0.263-0.664,0.338-1.014C11.36,39.938,11.211,39.952,11.064,39.952z"/>
            </g>
        </g>
    </g>
</svg>
